<mxfile host="app.diagrams.net" modified="2023-10-11T23:12:53.592Z" agent="Mozilla/5.0 (Windows NT 10.0; Win64; x64) AppleWebKit/537.36 (KHTML, like Gecko) Chrome/117.0.0.0 Safari/537.36" etag="AbO5SLQK3YE7Ms_hrl_l" version="22.0.4" type="device">
  <diagram name="Page-1" id="2YBvvXClWsGukQMizWep">
    <mxGraphModel dx="1522" dy="682" grid="1" gridSize="10" guides="1" tooltips="1" connect="1" arrows="1" fold="1" page="1" pageScale="1" pageWidth="850" pageHeight="1100" math="0" shadow="0">
      <root>
        <mxCell id="0" />
        <mxCell id="1" parent="0" />
        <mxCell id="GwJkUcKfsevWJiT3IoRo-40" value="leave(room)" style="html=1;verticalAlign=bottom;endArrow=block;edgeStyle=elbowEdgeStyle;elbow=vertical;curved=0;rounded=0;" edge="1" parent="1">
          <mxGeometry relative="1" as="geometry">
            <mxPoint x="166" y="280" as="sourcePoint" />
            <Array as="points">
              <mxPoint x="251" y="280" />
            </Array>
            <mxPoint x="500" y="280" as="targetPoint" />
          </mxGeometry>
        </mxCell>
        <mxCell id="GwJkUcKfsevWJiT3IoRo-41" value="new position" style="html=1;verticalAlign=bottom;endArrow=open;dashed=1;endSize=8;edgeStyle=elbowEdgeStyle;elbow=vertical;curved=0;rounded=0;" edge="1" parent="1">
          <mxGeometry relative="1" as="geometry">
            <mxPoint x="167.5" y="203" as="targetPoint" />
            <Array as="points" />
            <mxPoint x="502.5" y="203" as="sourcePoint" />
          </mxGeometry>
        </mxCell>
        <mxCell id="GwJkUcKfsevWJiT3IoRo-42" value="" style="endArrow=none;dashed=1;html=1;dashPattern=1 3;strokeWidth=2;rounded=0;" edge="1" parent="1">
          <mxGeometry width="50" height="50" relative="1" as="geometry">
            <mxPoint x="164" y="570" as="sourcePoint" />
            <mxPoint x="164" y="110" as="targetPoint" />
          </mxGeometry>
        </mxCell>
        <mxCell id="GwJkUcKfsevWJiT3IoRo-43" value="" style="endArrow=none;dashed=1;html=1;dashPattern=1 3;strokeWidth=2;rounded=0;" edge="1" parent="1">
          <mxGeometry width="50" height="50" relative="1" as="geometry">
            <mxPoint x="507" y="570" as="sourcePoint" />
            <mxPoint x="507" y="110" as="targetPoint" />
          </mxGeometry>
        </mxCell>
        <mxCell id="GwJkUcKfsevWJiT3IoRo-44" value=":System" style="rounded=0;whiteSpace=wrap;html=1;" vertex="1" parent="1">
          <mxGeometry x="460" y="70" width="90" height="40" as="geometry" />
        </mxCell>
        <mxCell id="GwJkUcKfsevWJiT3IoRo-45" value=":Player" style="shape=umlActor;verticalLabelPosition=bottom;verticalAlign=top;html=1;outlineConnect=0;" vertex="1" parent="1">
          <mxGeometry x="150" y="30" width="30" height="60" as="geometry" />
        </mxCell>
        <mxCell id="GwJkUcKfsevWJiT3IoRo-46" value="move(direction, x, y)" style="html=1;verticalAlign=bottom;endArrow=block;edgeStyle=elbowEdgeStyle;elbow=vertical;curved=0;rounded=0;" edge="1" parent="1">
          <mxGeometry relative="1" as="geometry">
            <mxPoint x="166" y="180" as="sourcePoint" />
            <Array as="points">
              <mxPoint x="251" y="180" />
            </Array>
            <mxPoint x="510" y="180" as="targetPoint" />
          </mxGeometry>
        </mxCell>
        <mxCell id="GwJkUcKfsevWJiT3IoRo-47" value="loop" style="shape=umlFrame;whiteSpace=wrap;html=1;pointerEvents=0;" vertex="1" parent="1">
          <mxGeometry x="90" y="130" width="460" height="430" as="geometry" />
        </mxCell>
        <mxCell id="GwJkUcKfsevWJiT3IoRo-48" value="opt" style="shape=umlFrame;whiteSpace=wrap;html=1;pointerEvents=0;" vertex="1" parent="1">
          <mxGeometry x="100" y="225" width="430" height="215" as="geometry" />
        </mxCell>
        <mxCell id="GwJkUcKfsevWJiT3IoRo-49" value="[If move into exit]" style="text;html=1;strokeColor=none;fillColor=none;align=center;verticalAlign=middle;whiteSpace=wrap;rounded=0;" vertex="1" parent="1">
          <mxGeometry x="166" y="234" width="110" height="20" as="geometry" />
        </mxCell>
        <mxCell id="GwJkUcKfsevWJiT3IoRo-50" value="[While haven&#39;t won or lost]" style="text;html=1;strokeColor=none;fillColor=none;align=center;verticalAlign=middle;whiteSpace=wrap;rounded=0;" vertex="1" parent="1">
          <mxGeometry x="166" y="140" width="144" height="20" as="geometry" />
        </mxCell>
        <mxCell id="GwJkUcKfsevWJiT3IoRo-51" value="lose the game" style="html=1;verticalAlign=bottom;endArrow=block;edgeStyle=elbowEdgeStyle;elbow=vertical;curved=0;rounded=0;" edge="1" parent="1">
          <mxGeometry relative="1" as="geometry">
            <mxPoint x="164.5" y="511" as="sourcePoint" />
            <Array as="points">
              <mxPoint x="254.5" y="511" />
            </Array>
            <mxPoint x="505.5" y="511" as="targetPoint" />
          </mxGeometry>
        </mxCell>
        <mxCell id="GwJkUcKfsevWJiT3IoRo-52" value="opt" style="shape=umlFrame;whiteSpace=wrap;html=1;pointerEvents=0;" vertex="1" parent="1">
          <mxGeometry x="103" y="460" width="427" height="90" as="geometry" />
        </mxCell>
        <mxCell id="GwJkUcKfsevWJiT3IoRo-53" value="[If hits a trap]" style="text;html=1;strokeColor=none;fillColor=none;align=center;verticalAlign=middle;whiteSpace=wrap;rounded=0;" vertex="1" parent="1">
          <mxGeometry x="169" y="470" width="110" height="20" as="geometry" />
        </mxCell>
        <mxCell id="GwJkUcKfsevWJiT3IoRo-54" value="alt" style="shape=umlFrame;whiteSpace=wrap;html=1;pointerEvents=0;" vertex="1" parent="1">
          <mxGeometry x="110" y="310" width="410" height="120" as="geometry" />
        </mxCell>
        <mxCell id="GwJkUcKfsevWJiT3IoRo-55" value="return new room" style="html=1;verticalAlign=bottom;endArrow=open;dashed=1;endSize=8;edgeStyle=elbowEdgeStyle;elbow=vertical;curved=0;rounded=0;" edge="1" parent="1">
          <mxGeometry relative="1" as="geometry">
            <mxPoint x="166" y="350.00000000000006" as="targetPoint" />
            <Array as="points" />
            <mxPoint x="501" y="350.00000000000006" as="sourcePoint" />
          </mxGeometry>
        </mxCell>
        <mxCell id="GwJkUcKfsevWJiT3IoRo-56" value="return won the game (if leaving the last room)" style="html=1;verticalAlign=bottom;endArrow=open;dashed=1;endSize=8;edgeStyle=elbowEdgeStyle;elbow=vertical;curved=0;rounded=0;" edge="1" parent="1">
          <mxGeometry relative="1" as="geometry">
            <mxPoint x="168" y="409" as="targetPoint" />
            <Array as="points" />
            <mxPoint x="503" y="409" as="sourcePoint" />
          </mxGeometry>
        </mxCell>
        <mxCell id="GwJkUcKfsevWJiT3IoRo-57" value="" style="endArrow=none;dashed=1;html=1;rounded=0;entryX=0.993;entryY=0.554;entryDx=0;entryDy=0;entryPerimeter=0;exitX=0.009;exitY=0.546;exitDx=0;exitDy=0;exitPerimeter=0;" edge="1" parent="1">
          <mxGeometry width="50" height="50" relative="1" as="geometry">
            <mxPoint x="113.27999999999994" y="369.52" as="sourcePoint" />
            <mxPoint x="516.72" y="370.48" as="targetPoint" />
          </mxGeometry>
        </mxCell>
        <mxCell id="GwJkUcKfsevWJiT3IoRo-58" value="return lost the game" style="html=1;verticalAlign=bottom;endArrow=open;dashed=1;endSize=8;edgeStyle=elbowEdgeStyle;elbow=vertical;curved=0;rounded=0;" edge="1" parent="1">
          <mxGeometry relative="1" as="geometry">
            <mxPoint x="166" y="540.38" as="targetPoint" />
            <Array as="points" />
            <mxPoint x="501" y="540.38" as="sourcePoint" />
          </mxGeometry>
        </mxCell>
        <mxCell id="GwJkUcKfsevWJiT3IoRo-59" value="[If not last room]" style="text;html=1;strokeColor=none;fillColor=none;align=center;verticalAlign=middle;whiteSpace=wrap;rounded=0;" vertex="1" parent="1">
          <mxGeometry x="165" y="311" width="110" height="20" as="geometry" />
        </mxCell>
        <mxCell id="GwJkUcKfsevWJiT3IoRo-60" value="[If last room]" style="text;html=1;strokeColor=none;fillColor=none;align=center;verticalAlign=middle;whiteSpace=wrap;rounded=0;" vertex="1" parent="1">
          <mxGeometry x="155" y="371" width="110" height="20" as="geometry" />
        </mxCell>
      </root>
    </mxGraphModel>
  </diagram>
</mxfile>
